{
  "accessors": [
    {
      "bufferView": 2,
      "componentType": 5126,
      "count": 203,
      "max": [
        33.764205932617188,
        51.00048828125,
        34.071685791015625
      ],
      "min": [
        -33.805099487304688,
        -51.007186889648438,
        -33.999454498291016
      ],
      "type": "VEC3"
    },
    {
      "bufferView": 2,
      "byteOffset": 2436,
      "componentType": 5126,
      "count": 203,
      "max": [
        0.9999997615814209,
        1,
        0.99999308586120605
      ],
      "min": [
        -0.9999997615814209,
        -0.99999982118606567,
        -0.99999493360519409
      ],
      "type": "VEC3"
    },
    {
      "bufferView": 3,
      "componentType": 5126,
      "count": 203,
      "max": [
        0.99913769960403442,
        0.99999886751174927,
        0.65000045299530029,
        1
      ],
      "min": [
        -0.64995545148849487,
        -0.78826874494552612,
        -0.63501530885696411,
        1
      ],
      "type": "VEC4"
    },
    {
      "bufferView": 1,
      "componentType": 5126,
      "count": 203,
      "max": [
        0.95201623439788818,
        1
      ],
      "min": [
        0.047983765602111816,
        0
      ],
      "type": "VEC2"
    },
    {
      "bufferView": 0,
      "componentType": 5125,
      "count": 1032,
      "max": [
        202
      ],
      "min": [
        0
      ],
      "type": "SCALAR"
    },
    {
      "bufferView": 2,
      "byteOffset": 4872,
      "componentType": 5126,
      "count": 1902,
      "max": [
        39.601058959960938,
        44.786643981933594,
        37.916774749755859
      ],
      "min": [
        -39.540817260742188,
        -44.807159423828125,
        -37.903079986572266
      ],
      "type": "VEC3"
    },
    {
      "bufferView": 2,
      "byteOffset": 27696,
      "componentType": 5126,
      "count": 1902,
      "max": [
        0.9990277886390686,
        0.99882620573043823,
        0.99805599451065063
      ],
      "min": [
        -0.99903875589370728,
        -0.99990671873092651,
        -0.99713438749313354
      ],
      "type": "VEC3"
    },
    {
      "bufferView": 3,
      "byteOffset": 3248,
      "componentType": 5126,
      "count": 1902,
      "max": [
        0.99966955184936523,
        0.96067053079605103,
        0.99970579147338867,
        1
      ],
      "min": [
        -0.99862837791442871,
        -0.94215536117553711,
        -0.99919569492340088,
        -1
      ],
      "type": "VEC4"
    },
    {
      "bufferView": 1,
      "byteOffset": 1624,
      "componentType": 5126,
      "count": 1902,
      "max": [
        0.99262881278991699,
        0.98824912309646606
      ],
      "min": [
        0.022543333470821381,
        0.0074694473296403885
      ],
      "type": "VEC2"
    },
    {
      "bufferView": 0,
      "byteOffset": 4128,
      "componentType": 5125,
      "count": 9720,
      "max": [
        1901
      ],
      "min": [
        0
      ],
      "type": "SCALAR"
    },
    {
      "bufferView": 2,
      "byteOffset": 50520,
      "componentType": 5126,
      "count": 298,
      "max": [
        -30.643667221069336,
        29.8875732421875,
        10.26242733001709
      ],
      "min": [
        -89.790069580078125,
        5.5988116264343262,
        -10.282276153564453
      ],
      "type": "VEC3"
    },
    {
      "bufferView": 2,
      "byteOffset": 54096,
      "componentType": 5126,
      "count": 298,
      "max": [
        0.99949008226394653,
        0.9995570182800293,
        0.99864441156387329
      ],
      "min": [
        -0.97409403324127197,
        -0.99922639131546021,
        -0.99850302934646606
      ],
      "type": "VEC3"
    },
    {
      "bufferView": 3,
      "byteOffset": 33680,
      "componentType": 5126,
      "count": 298,
      "max": [
        0.51917839050292969,
        0.8649284839630127,
        0.88786530494689941,
        1
      ],
      "min": [
        -0.99965751171112061,
        -0.99953830242156982,
        -0.99304300546646118,
        1
      ],
      "type": "VEC4"
    },
    {
      "bufferView": 1,
      "byteOffset": 16840,
      "componentType": 5126,
      "count": 298,
      "max": [
        0.5225989818572998,
        0.99132716655731201
      ],
      "min": [
        0.020807398483157158,
        0.61652076244354248
      ],
      "type": "VEC2"
    },
    {
      "bufferView": 0,
      "byteOffset": 43008,
      "componentType": 5125,
      "count": 1596,
      "max": [
        297
      ],
      "min": [
        0
      ],
      "type": "SCALAR"
    },
    {
      "bufferView": 2,
      "byteOffset": 57672,
      "componentType": 5126,
      "count": 1257,
      "max": [
        -17.967533111572266,
        19.73797607421875,
        41.730556488037109
      ],
      "min": [
        -75.658172607421875,
        -41.595874786376953,
        -41.730556488037109
      ],
      "type": "VEC3"
    },
    {
      "bufferView": 2,
      "byteOffset": 72756,
      "componentType": 5126,
      "count": 1257,
      "max": [
        0.9996105432510376,
        0.99998241662979126,
        0.99682700634002686
      ],
      "min": [
        -0.99998897314071655,
        -0.99999207258224487,
        -0.99682694673538208
      ],
      "type": "VEC3"
    },
    {
      "bufferView": 3,
      "byteOffset": 38448,
      "componentType": 5126,
      "count": 1257,
      "max": [
        0.99914044141769409,
        0.75023484230041504,
        0.99999582767486572,
        1
      ],
      "min": [
        -0.99973225593566895,
        -0.75160825252532959,
        -0.9999997615814209,
        1
      ],
      "type": "VEC4"
    },
    {
      "bufferView": 1,
      "byteOffset": 19224,
      "componentType": 5126,
      "count": 1257,
      "max": [
        0.83120030164718628,
        0.62006568908691406
      ],
      "min": [
        0,
        0
      ],
      "type": "VEC2"
    },
    {
      "bufferView": 0,
      "byteOffset": 49392,
      "componentType": 5125,
      "count": 7302,
      "max": [
        1256
      ],
      "min": [
        0
      ],
      "type": "SCALAR"
    },
    {
      "bufferView": 2,
      "byteOffset": 87840,
      "componentType": 5126,
      "count": 214,
      "max": [
        -47.988979339599609,
        -22.333742141723633,
        19.441980361938477
      ],
      "min": [
        -70.765556335449219,
        -33.290904998779297,
        -19.336427688598633
      ],
      "type": "VEC3"
    },
    {
      "bufferView": 2,
      "byteOffset": 90408,
      "componentType": 5126,
      "count": 214,
      "max": [
        0.99818283319473267,
        0.98174816370010376,
        0.99262088537216187
      ],
      "min": [
        -0.99637532234191895,
        -0.082118555903434753,
        -0.99981087446212769
      ],
      "type": "VEC3"
    },
    {
      "bufferView": 3,
      "byteOffset": 58560,
      "componentType": 5126,
      "count": 214,
      "max": [
        0.98362958431243896,
        0.99856621026992798,
        0.66051626205444336,
        1
      ],
      "min": [
        -0.96930021047592163,
        -0.99882674217224121,
        -0.41959074139595032,
        1
      ],
      "type": "VEC4"
    },
    {
      "bufferView": 1,
      "byteOffset": 29280,
      "componentType": 5126,
      "count": 214,
      "max": [
        0.99894779920578003,
        0.64765942096710205
      ],
      "min": [
        0.75333786010742188,
        0
      ],
      "type": "VEC2"
    },
    {
      "bufferView": 0,
      "byteOffset": 78600,
      "componentType": 5125,
      "count": 1128,
      "max": [
        213
      ],
      "min": [
        0
      ],
      "type": "SCALAR"
    },
    {
      "bufferView": 2,
      "byteOffset": 92976,
      "componentType": 5126,
      "count": 636,
      "max": [
        -4.6028580665588379,
        16.71919059753418,
        48.164779663085938
      ],
      "min": [
        -39.198261260986328,
        -37.42803955078125,
        -48.164779663085938
      ],
      "type": "VEC3"
    },
    {
      "bufferView": 2,
      "byteOffset": 100608,
      "componentType": 5126,
      "count": 636,
      "max": [
        0.99688637256622314,
        0.99681925773620605,
        0.99635320901870728
      ],
      "min": [
        -0.99933230876922607,
        -0.98279130458831787,
        -0.99635320901870728
      ],
      "type": "VEC3"
    },
    {
      "bufferView": 3,
      "byteOffset": 61984,
      "componentType": 5126,
      "count": 636,
      "max": [
        0.98680442571640015,
        0.69265979528427124,
        0.99692952632904053,
        1
      ],
      "min": [
        -0.99363136291503906,
        -0.71984601020812988,
        -0.99708682298660278,
        -1
      ],
      "type": "VEC4"
    },
    {
      "bufferView": 1,
      "byteOffset": 30992,
      "componentType": 5126,
      "count": 636,
      "max": [
        0.99872857332229614,
        0.99549376964569092
      ],
      "min": [
        0.51784706115722656,
        0.57893991470336914
      ],
      "type": "VEC2"
    },
    {
      "bufferView": 0,
      "byteOffset": 83112,
      "componentType": 5125,
      "count": 3420,
      "max": [
        635
      ],
      "min": [
        0
      ],
      "type": "SCALAR"
    },
    {
      "bufferView": 2,
      "byteOffset": 108240,
      "componentType": 5126,
      "count": 1617,
      "max": [
        229.11672973632812,
        29.960321426391602,
        17.873899459838867
      ],
      "min": [
        27.822433471679688,
        -30.074764251708984,
        -18.156976699829102
      ],
      "type": "VEC3"
    },
    {
      "bufferView": 2,
      "byteOffset": 127644,
      "componentType": 5126,
      "count": 1617,
      "max": [
        0.99985551834106445,
        0.99993443489074707,
        0.99911701679229736
      ],
      "min": [
        -0.97489726543426514,
        -1,
        -0.99884629249572754
      ],
      "type": "VEC3"
    },
    {
      "bufferView": 3,
      "byteOffset": 72160,
      "componentType": 5126,
      "count": 1617,
      "max": [
        0.92072713375091553,
        0.99809414148330688,
        0.9999997615814209,
        1
      ],
      "min": [
        -0.99996119737625122,
        -0.99470484256744385,
        -1,
        -1
      ],
      "type": "VEC4"
    },
    {
      "bufferView": 1,
      "byteOffset": 36080,
      "componentType": 5126,
      "count": 1617,
      "max": [
        0.99583172798156738,
        1
      ],
      "min": [
        0,
        0
      ],
      "type": "VEC2"
    },
    {
      "bufferView": 0,
      "byteOffset": 96792,
      "componentType": 5125,
      "count": 9204,
      "max": [
        1616
      ],
      "min": [
        0
      ],
      "type": "SCALAR"
    },
    {
      "bufferView": 2,
      "byteOffset": 147048,
      "componentType": 5126,
      "count": 693,
      "max": [
        56.575119018554688,
        19.364809036254883,
        18.754413604736328
      ],
      "min": [
        24.976112365722656,
        -18.649208068847656,
        -18.8394775390625
      ],
      "type": "VEC3"
    },
    {
      "bufferView": 2,
      "byteOffset": 155364,
      "componentType": 5126,
      "count": 693,
      "max": [
        0.9998813271522522,
        0.99999767541885376,
        0.98913246393203735
      ],
      "min": [
        -0.99630248546600342,
        -0.999969482421875,
        -0.98862689733505249
      ],
      "type": "VEC3"
    },
    {
      "bufferView": 3,
      "byteOffset": 98032,
      "componentType": 5126,
      "count": 693,
      "max": [
        0.99507755041122437,
        0.99984204769134521,
        0.93818825483322144,
        1
      ],
      "min": [
        -0.99838560819625854,
        -0.99977946281433105,
        -0.99999773502349854,
        1
      ],
      "type": "VEC4"
    },
    {
      "bufferView": 1,
      "byteOffset": 49016,
      "componentType": 5126,
      "count": 693,
      "max": [
        0.99182003736495972,
        0.93824964761734009
      ],
      "min": [
        0.0058404947631061077,
        0.018666274845600128
      ],
      "type": "VEC2"
    },
    {
      "bufferView": 0,
      "byteOffset": 133608,
      "componentType": 5125,
      "count": 3600,
      "max": [
        692
      ],
      "min": [
        0
      ],
      "type": "SCALAR"
    }
  ],
  "asset": {
    "extras": {
      "author": "douglaslcoelli (https://sketchfab.com/douglaslcoelli)",
      "license": "CC-BY-4.0 (http://creativecommons.org/licenses/by/4.0/)",
      "source": "https://sketchfab.com/models/2b0dac64e9e94257b2416ca946e806ed",
      "title": "Monster Sea Hammer"
    },
    "generator": "Sketchfab-3.20.4",
    "version": "2.0"
  },
  "bufferViews": [
    {
      "buffer": 0,
      "byteLength": 148008,
      "byteOffset": 0,
      "name": "floatBufferViews",
      "target": 34963
    },
    {
      "buffer": 0,
      "byteLength": 54560,
      "byteOffset": 148008,
      "byteStride": 8,
      "name": "floatBufferViews",
      "target": 34962
    },
    {
      "buffer": 0,
      "byteLength": 163680,
      "byteOffset": 202568,
      "byteStride": 12,
      "name": "floatBufferViews",
      "target": 34962
    },
    {
      "buffer": 0,
      "byteLength": 109120,
      "byteOffset": 366248,
      "byteStride": 16,
      "name": "floatBufferViews",
      "target": 34962
    }
  ],
  "buffers": [
    {
      "byteLength": 475368,
      "uri": "scene.bin"
    }
  ],
  "extensionsUsed": [
    "KHR_materials_unlit"
  ],
  "images": [
    {
      "uri": "textures/M_MSH_C_baseColor.png"
    },
    {
      "uri": "textures/M_MSH_C_emissive.png"
    },
    {
      "uri": "textures/M_MSH_CCD_baseColor.png"
    },
    {
      "uri": "textures/M_MSH_CCD_emissive.png"
    },
    {
      "uri": "textures/M_MSH_PP_baseColor.png"
    }
  ],
  "materials": [
    {
      "doubleSided": true,
      "extensions": {
        "KHR_materials_unlit": {}
      },
      "name": "M_MSH_PP",
      "pbrMetallicRoughness": {
        "baseColorFactor": [
          1,
          1,
          1,
          1
        ],
        "baseColorTexture": {
          "index": 4,
          "texCoord": 0
        },
        "metallicFactor": 0,
        "roughnessFactor": 1
      }
    },
    {
      "doubleSided": true,
      "emissiveFactor": [
        1,
        1,
        1
      ],
      "emissiveTexture": {
        "index": 3,
        "texCoord": 0
      },
      "extensions": {
        "KHR_materials_unlit": {}
      },
      "name": "M_MSH_CCD",
      "pbrMetallicRoughness": {
        "baseColorFactor": [
          1,
          1,
          1,
          1
        ],
        "baseColorTexture": {
          "index": 2,
          "texCoord": 0
        },
        "metallicFactor": 0,
        "roughnessFactor": 1
      }
    },
    {
      "doubleSided": true,
      "emissiveFactor": [
        0.90000000000000002,
        0.90000000000000002,
        0.90000000000000002
      ],
      "emissiveTexture": {
        "index": 1,
        "texCoord": 0
      },
      "extensions": {
        "KHR_materials_unlit": {}
      },
      "name": "M_MSH_C",
      "pbrMetallicRoughness": {
        "baseColorFactor": [
          1,
          1,
          1,
          1
        ],
        "baseColorTexture": {
          "index": 0,
          "texCoord": 0
        },
        "metallicFactor": 0,
        "roughnessFactor": 1
      }
    }
  ],
  "meshes": [
    {
      "name": "pedra_low_M_MSH_PP_0",
      "primitives": [
        {
          "attributes": {
            "NORMAL": 1,
            "POSITION": 0,
            "TANGENT": 2,
            "TEXCOORD_0": 3
          },
          "indices": 4,
          "material": 0,
          "mode": 4
        }
      ]
    },
    {
      "name": "polvos_low_M_MSH_PP_0",
      "primitives": [
        {
          "attributes": {
            "NORMAL": 6,
            "POSITION": 5,
            "TANGENT": 7,
            "TEXCOORD_0": 8
          },
          "indices": 9,
          "material": 0,
          "mode": 4
        }
      ]
    },
    {
      "name": "chifre_low_M_MSH_CCD_0",
      "primitives": [
        {
          "attributes": {
            "NORMAL": 11,
            "POSITION": 10,
            "TANGENT": 12,
            "TEXCOORD_0": 13
          },
          "indices": 14,
          "material": 1,
          "mode": 4
        }
      ]
    },
    {
      "name": "cranio_low_M_MSH_CCD_0",
      "primitives": [
        {
          "attributes": {
            "NORMAL": 16,
            "POSITION": 15,
            "TANGENT": 17,
            "TEXCOORD_0": 18
          },
          "indices": 19,
          "material": 1,
          "mode": 4
        }
      ]
    },
    {
      "name": "dentes_low_M_MSH_CCD_0",
      "primitives": [
        {
          "attributes": {
            "NORMAL": 21,
            "POSITION": 20,
            "TANGENT": 22,
            "TEXCOORD_0": 23
          },
          "indices": 24,
          "material": 1,
          "mode": 4
        }
      ]
    },
    {
      "name": "chifres_low_M_MSH_CCD_0",
      "primitives": [
        {
          "attributes": {
            "NORMAL": 26,
            "POSITION": 25,
            "TANGENT": 27,
            "TEXCOORD_0": 28
          },
          "indices": 29,
          "material": 1,
          "mode": 4
        }
      ]
    },
    {
      "name": "cabo_low_M_MSH_C_0",
      "primitives": [
        {
          "attributes": {
            "NORMAL": 31,
            "POSITION": 30,
            "TANGENT": 32,
            "TEXCOORD_0": 33
          },
          "indices": 34,
          "material": 2,
          "mode": 4
        }
      ]
    },
    {
      "name": "argola_low_M_MSH_C_0",
      "primitives": [
        {
          "attributes": {
            "NORMAL": 36,
            "POSITION": 35,
            "TANGENT": 37,
            "TEXCOORD_0": 38
          },
          "indices": 39,
          "material": 2,
          "mode": 4
        }
      ]
    }
  ],
  "nodes": [
    {
      "children": [
        1
      ],
      "name": "RootNode (gltf orientation matrix)",
      "rotation": [
        -0.70710678118654746,
        -0,
        -0,
        0.70710678118654757
      ]
    },
    {
      "children": [
        2
      ],
      "name": "RootNode (model correction matrix)"
    },
    {
      "children": [
        3
      ],
      "matrix": [
        1,
        0,
        0,
        0,
        0,
        0,
        1,
        0,
        0,
        -1,
        0,
        0,
        0,
        0,
        0,
        1
      ],
      "name": "27e101bb82f2482a9229fa8ffe5211f9.fbx"
    },
    {
      "children": [
        4
      ],
      "name": "RootNode"
    },
    {
      "children": [
        5,
        7,
        9,
        11,
        13,
        15,
        17,
        19
      ],
      "name": "lowMesh"
    },
    {
      "children": [
        6
      ],
      "name": "pedra_low"
    },
    {
      "mesh": 0,
      "name": "pedra_low_M_MSH_PP_0"
    },
    {
      "children": [
        8
      ],
      "name": "polvos_low"
    },
    {
      "mesh": 1,
      "name": "polvos_low_M_MSH_PP_0"
    },
    {
      "children": [
        10
      ],
      "name": "chifre_low"
    },
    {
      "mesh": 2,
      "name": "chifre_low_M_MSH_CCD_0"
    },
    {
      "children": [
        12
      ],
      "name": "cranio_low"
    },
    {
      "mesh": 3,
      "name": "cranio_low_M_MSH_CCD_0"
    },
    {
      "children": [
        14
      ],
      "name": "dentes_low"
    },
    {
      "mesh": 4,
      "name": "dentes_low_M_MSH_CCD_0"
    },
    {
      "children": [
        16
      ],
      "name": "chifres_low"
    },
    {
      "mesh": 5,
      "name": "chifres_low_M_MSH_CCD_0"
    },
    {
      "children": [
        18
      ],
      "name": "cabo_low"
    },
    {
      "mesh": 6,
      "name": "cabo_low_M_MSH_C_0"
    },
    {
      "children": [
        20
      ],
      "name": "argola_low"
    },
    {
      "mesh": 7,
      "name": "argola_low_M_MSH_C_0"
    }
  ],
  "samplers": [
    {
      "magFilter": 9729,
      "minFilter": 9987,
      "wrapS": 10497,
      "wrapT": 10497
    }
  ],
  "scene": 0,
  "scenes": [
    {
      "name": "OSG_Scene",
      "nodes": [
        0
      ]
    }
  ],
  "textures": [
    {
      "sampler": 0,
      "source": 0
    },
    {
      "sampler": 0,
      "source": 1
    },
    {
      "sampler": 0,
      "source": 2
    },
    {
      "sampler": 0,
      "source": 3
    },
    {
      "sampler": 0,
      "source": 4
    }
  ]
}

